<svg width="155" height="155" viewBox="0 0 155 155" fill="none" xmlns="http://www.w3.org/2000/svg">
<path d="M152.886 142.671L143.022 142.671C142.828 142.671 142.67 142.828 142.67 143.023L142.67 152.886C142.67 153.081 142.828 153.239 143.022 153.239L152.886 153.239C153.081 153.239 153.238 153.081 153.238 152.886L153.238 143.023C153.238 142.828 153.081 142.671 152.886 142.671Z" stroke="white" stroke-width="1.32102" stroke-linecap="round" stroke-linejoin="round"/>
<path d="M152.886 114.488L143.022 114.488C142.828 114.488 142.67 114.646 142.67 114.841L142.67 124.704C142.67 124.899 142.828 125.057 143.022 125.057L152.886 125.057C153.081 125.057 153.238 124.899 153.238 124.704L153.238 114.841C153.238 114.646 153.081 114.488 152.886 114.488Z" stroke="white" stroke-width="1.32102" stroke-linecap="round" stroke-linejoin="round"/>
<path d="M152.886 86.3068L143.022 86.3068C142.828 86.3068 142.67 86.4645 142.67 86.6591L142.67 96.5227C142.67 96.7173 142.828 96.875 143.022 96.875L152.886 96.875C153.081 96.875 153.238 96.7173 153.238 96.5227L153.238 86.6591C153.238 86.4645 153.081 86.3068 152.886 86.3068Z" stroke="white" stroke-width="1.32102" stroke-linecap="round" stroke-linejoin="round"/>
<path d="M152.886 58.1252L143.022 58.1252C142.828 58.1252 142.67 58.2829 142.67 58.4775L142.67 68.3411C142.67 68.5356 142.828 68.6934 143.022 68.6934L152.886 68.6934C153.081 68.6934 153.238 68.5356 153.238 68.3411L153.238 58.4774C153.238 58.2829 153.081 58.1252 152.886 58.1252Z" stroke="white" stroke-width="1.32102" stroke-linecap="round" stroke-linejoin="round"/>
<path d="M152.886 29.943L143.022 29.943C142.828 29.943 142.67 30.1007 142.67 30.2953L142.67 40.159C142.67 40.3535 142.828 40.5112 143.022 40.5112L152.886 40.5112C153.081 40.5112 153.238 40.3535 153.238 40.159L153.238 30.2953C153.238 30.1007 153.081 29.943 152.886 29.943Z" stroke="white" stroke-width="1.32102" stroke-linecap="round" stroke-linejoin="round"/>
<path d="M152.886 1.76141L143.022 1.76141C142.828 1.76141 142.67 1.91911 142.67 2.11368L142.67 11.9773C142.67 12.1719 142.828 12.3296 143.022 12.3296L152.886 12.3296C153.081 12.3296 153.238 12.1719 153.238 11.9773L153.238 2.11368C153.238 1.91911 153.081 1.76141 152.886 1.76141Z" stroke="white" stroke-width="1.32102" stroke-linecap="round" stroke-linejoin="round"/>
<path d="M124.704 142.671L114.841 142.671C114.646 142.671 114.488 142.828 114.488 143.023L114.488 152.886C114.488 153.081 114.646 153.239 114.841 153.239L124.704 153.239C124.899 153.239 125.057 153.081 125.057 152.886L125.057 143.023C125.057 142.828 124.899 142.671 124.704 142.671Z" stroke="white" stroke-width="1.32102" stroke-linecap="round" stroke-linejoin="round"/>
<path d="M124.704 114.488L114.841 114.488C114.646 114.488 114.488 114.646 114.488 114.841L114.488 124.704C114.488 124.899 114.646 125.057 114.841 125.057L124.704 125.057C124.899 125.057 125.057 124.899 125.057 124.704L125.057 114.841C125.057 114.646 124.899 114.488 124.704 114.488Z" stroke="white" stroke-width="1.32102" stroke-linecap="round" stroke-linejoin="round"/>
<path d="M124.704 86.3068L114.841 86.3068C114.646 86.3068 114.488 86.4645 114.488 86.6591L114.488 96.5227C114.488 96.7173 114.646 96.875 114.841 96.875L124.704 96.875C124.899 96.875 125.057 96.7173 125.057 96.5227L125.057 86.6591C125.057 86.4645 124.899 86.3068 124.704 86.3068Z" stroke="white" stroke-width="1.32102" stroke-linecap="round" stroke-linejoin="round"/>
<path d="M124.704 58.1252L114.841 58.1252C114.646 58.1252 114.488 58.2829 114.488 58.4775L114.488 68.3411C114.488 68.5356 114.646 68.6934 114.841 68.6934L124.704 68.6934C124.899 68.6934 125.057 68.5356 125.057 68.3411L125.057 58.4774C125.057 58.2829 124.899 58.1252 124.704 58.1252Z" stroke="white" stroke-width="1.32102" stroke-linecap="round" stroke-linejoin="round"/>
<path d="M124.704 29.943L114.841 29.943C114.646 29.943 114.488 30.1007 114.488 30.2953L114.488 40.159C114.488 40.3535 114.646 40.5112 114.841 40.5112L124.704 40.5112C124.899 40.5112 125.057 40.3535 125.057 40.159L125.057 30.2953C125.057 30.1007 124.899 29.943 124.704 29.943Z" stroke="white" stroke-width="1.32102" stroke-linecap="round" stroke-linejoin="round"/>
<path d="M124.704 1.76141L114.841 1.76141C114.646 1.76141 114.488 1.91911 114.488 2.11368L114.488 11.9773C114.488 12.1719 114.646 12.3296 114.841 12.3296L124.704 12.3296C124.899 12.3296 125.057 12.1719 125.057 11.9773L125.057 2.11368C125.057 1.91911 124.899 1.76141 124.704 1.76141Z" stroke="white" stroke-width="1.32102" stroke-linecap="round" stroke-linejoin="round"/>
<path d="M96.5227 142.671L86.6591 142.671C86.4645 142.671 86.3068 142.828 86.3068 143.023L86.3068 152.886C86.3068 153.081 86.4645 153.239 86.6591 153.239L96.5227 153.239C96.7173 153.239 96.875 153.081 96.875 152.886L96.875 143.023C96.875 142.828 96.7173 142.671 96.5227 142.671Z" stroke="white" stroke-width="1.32102" stroke-linecap="round" stroke-linejoin="round"/>
<path d="M96.5227 114.488L86.6591 114.488C86.4645 114.488 86.3068 114.646 86.3068 114.841L86.3068 124.704C86.3068 124.899 86.4645 125.057 86.6591 125.057L96.5227 125.057C96.7173 125.057 96.875 124.899 96.875 124.704L96.875 114.841C96.875 114.646 96.7173 114.488 96.5227 114.488Z" stroke="white" stroke-width="1.32102" stroke-linecap="round" stroke-linejoin="round"/>
<path d="M96.5227 86.3068L86.6591 86.3068C86.4645 86.3068 86.3068 86.4645 86.3068 86.6591L86.3068 96.5227C86.3068 96.7173 86.4645 96.875 86.6591 96.875L96.5227 96.875C96.7173 96.875 96.875 96.7173 96.875 96.5227L96.875 86.6591C96.875 86.4645 96.7173 86.3068 96.5227 86.3068Z" stroke="white" stroke-width="1.32102" stroke-linecap="round" stroke-linejoin="round"/>
<path d="M96.5227 58.1252L86.6591 58.1252C86.4645 58.1252 86.3068 58.2829 86.3068 58.4775L86.3068 68.3411C86.3068 68.5356 86.4645 68.6934 86.6591 68.6934L96.5227 68.6934C96.7173 68.6934 96.875 68.5356 96.875 68.3411L96.875 58.4774C96.875 58.2829 96.7173 58.1252 96.5227 58.1252Z" stroke="white" stroke-width="1.32102" stroke-linecap="round" stroke-linejoin="round"/>
<path d="M96.5227 29.943L86.6591 29.943C86.4645 29.943 86.3068 30.1007 86.3068 30.2953L86.3068 40.159C86.3068 40.3535 86.4645 40.5112 86.6591 40.5112L96.5227 40.5112C96.7173 40.5112 96.875 40.3535 96.875 40.159L96.875 30.2953C96.875 30.1007 96.7173 29.943 96.5227 29.943Z" stroke="white" stroke-width="1.32102" stroke-linecap="round" stroke-linejoin="round"/>
<path d="M96.5227 1.76141L86.6591 1.76141C86.4645 1.76141 86.3068 1.91911 86.3068 2.11368L86.3068 11.9773C86.3068 12.1719 86.4645 12.3296 86.6591 12.3296L96.5227 12.3296C96.7173 12.3296 96.875 12.1719 96.875 11.9773L96.875 2.11368C96.875 1.91911 96.7173 1.76141 96.5227 1.76141Z" stroke="white" stroke-width="1.32102" stroke-linecap="round" stroke-linejoin="round"/>
<path d="M68.3411 142.671L58.4774 142.671C58.2829 142.671 58.1252 142.828 58.1252 143.023L58.1252 152.886C58.1252 153.081 58.2829 153.239 58.4774 153.239L68.3411 153.239C68.5356 153.239 68.6934 153.081 68.6934 152.886L68.6934 143.023C68.6934 142.828 68.5356 142.671 68.3411 142.671Z" stroke="white" stroke-width="1.32102" stroke-linecap="round" stroke-linejoin="round"/>
<path d="M68.3411 114.488L58.4774 114.488C58.2829 114.488 58.1252 114.646 58.1252 114.841L58.1252 124.704C58.1252 124.899 58.2829 125.057 58.4774 125.057L68.3411 125.057C68.5356 125.057 68.6934 124.899 68.6934 124.704L68.6934 114.841C68.6934 114.646 68.5356 114.488 68.3411 114.488Z" stroke="white" stroke-width="1.32102" stroke-linecap="round" stroke-linejoin="round"/>
<path d="M68.3411 86.3068L58.4774 86.3068C58.2829 86.3068 58.1252 86.4645 58.1252 86.6591L58.1252 96.5227C58.1252 96.7173 58.2829 96.875 58.4774 96.875L68.3411 96.875C68.5356 96.875 68.6934 96.7173 68.6934 96.5227L68.6934 86.6591C68.6934 86.4645 68.5356 86.3068 68.3411 86.3068Z" stroke="white" stroke-width="1.32102" stroke-linecap="round" stroke-linejoin="round"/>
<path d="M68.3411 58.1252L58.4774 58.1252C58.2829 58.1252 58.1252 58.2829 58.1252 58.4775L58.1252 68.3411C58.1252 68.5356 58.2829 68.6934 58.4774 68.6934L68.3411 68.6934C68.5356 68.6934 68.6934 68.5356 68.6934 68.3411L68.6934 58.4774C68.6934 58.2829 68.5356 58.1252 68.3411 58.1252Z" stroke="white" stroke-width="1.32102" stroke-linecap="round" stroke-linejoin="round"/>
<path d="M68.3411 29.943L58.4774 29.943C58.2829 29.943 58.1252 30.1007 58.1252 30.2953L58.1252 40.159C58.1252 40.3535 58.2829 40.5112 58.4774 40.5112L68.3411 40.5112C68.5356 40.5112 68.6934 40.3535 68.6934 40.159L68.6934 30.2953C68.6934 30.1007 68.5356 29.943 68.3411 29.943Z" stroke="white" stroke-width="1.32102" stroke-linecap="round" stroke-linejoin="round"/>
<path d="M68.3411 1.76141L58.4774 1.76141C58.2829 1.76141 58.1252 1.91911 58.1252 2.11368L58.1252 11.9773C58.1252 12.1719 58.2829 12.3296 58.4774 12.3296L68.3411 12.3296C68.5356 12.3296 68.6934 12.1719 68.6934 11.9773L68.6934 2.11368C68.6934 1.91911 68.5356 1.76141 68.3411 1.76141Z" stroke="white" stroke-width="1.32102" stroke-linecap="round" stroke-linejoin="round"/>
<path d="M40.1594 142.671L30.2958 142.671C30.1012 142.671 29.9435 142.828 29.9435 143.023L29.9435 152.886C29.9435 153.081 30.1012 153.239 30.2958 153.239L40.1594 153.239C40.354 153.239 40.5117 153.081 40.5117 152.886L40.5117 143.023C40.5117 142.828 40.354 142.671 40.1594 142.671Z" stroke="white" stroke-width="1.32102" stroke-linecap="round" stroke-linejoin="round"/>
<path d="M40.1594 114.488L30.2958 114.488C30.1012 114.488 29.9435 114.646 29.9435 114.841L29.9435 124.704C29.9435 124.899 30.1012 125.057 30.2958 125.057L40.1594 125.057C40.354 125.057 40.5117 124.899 40.5117 124.704L40.5117 114.841C40.5117 114.646 40.354 114.488 40.1594 114.488Z" stroke="white" stroke-width="1.32102" stroke-linecap="round" stroke-linejoin="round"/>
<path d="M40.1594 86.3068L30.2958 86.3068C30.1012 86.3068 29.9435 86.4645 29.9435 86.6591L29.9435 96.5227C29.9435 96.7173 30.1012 96.875 30.2958 96.875L40.1594 96.875C40.354 96.875 40.5117 96.7173 40.5117 96.5227L40.5117 86.6591C40.5117 86.4645 40.354 86.3068 40.1594 86.3068Z" stroke="white" stroke-width="1.32102" stroke-linecap="round" stroke-linejoin="round"/>
<path d="M40.1594 58.1252L30.2958 58.1252C30.1012 58.1252 29.9435 58.2829 29.9435 58.4775L29.9435 68.3411C29.9435 68.5356 30.1012 68.6934 30.2958 68.6934L40.1594 68.6934C40.354 68.6934 40.5117 68.5356 40.5117 68.3411L40.5117 58.4774C40.5117 58.2829 40.354 58.1252 40.1594 58.1252Z" stroke="white" stroke-width="1.32102" stroke-linecap="round" stroke-linejoin="round"/>
<path d="M40.1594 29.943L30.2958 29.943C30.1012 29.943 29.9435 30.1007 29.9435 30.2953L29.9435 40.159C29.9435 40.3535 30.1012 40.5112 30.2958 40.5112L40.1594 40.5112C40.354 40.5112 40.5117 40.3535 40.5117 40.159L40.5117 30.2953C40.5117 30.1007 40.354 29.943 40.1594 29.943Z" stroke="white" stroke-width="1.32102" stroke-linecap="round" stroke-linejoin="round"/>
<path d="M40.1594 1.76141L30.2958 1.76141C30.1012 1.76141 29.9435 1.91911 29.9435 2.11368L29.9435 11.9773C29.9435 12.1719 30.1012 12.3296 30.2958 12.3296L40.1594 12.3296C40.354 12.3296 40.5117 12.1719 40.5117 11.9773L40.5117 2.11368C40.5117 1.91911 40.354 1.76141 40.1594 1.76141Z" stroke="white" stroke-width="1.32102" stroke-linecap="round" stroke-linejoin="round"/>
<path d="M11.9778 142.671L2.11417 142.671C1.9196 142.671 1.7619 142.828 1.7619 143.023L1.7619 152.886C1.7619 153.081 1.9196 153.239 2.11417 153.239L11.9778 153.239C12.1724 153.239 12.3301 153.081 12.3301 152.886L12.3301 143.023C12.3301 142.828 12.1724 142.671 11.9778 142.671Z" stroke="white" stroke-width="1.32102" stroke-linecap="round" stroke-linejoin="round"/>
<path d="M11.9778 114.488L2.11417 114.488C1.9196 114.488 1.7619 114.646 1.7619 114.841L1.7619 124.704C1.7619 124.899 1.9196 125.057 2.11417 125.057L11.9778 125.057C12.1724 125.057 12.3301 124.899 12.3301 124.704L12.3301 114.841C12.3301 114.646 12.1724 114.488 11.9778 114.488Z" stroke="white" stroke-width="1.32102" stroke-linecap="round" stroke-linejoin="round"/>
<path d="M11.9778 86.3068L2.11417 86.3068C1.9196 86.3068 1.7619 86.4645 1.7619 86.6591L1.7619 96.5227C1.7619 96.7173 1.9196 96.875 2.11417 96.875L11.9778 96.875C12.1724 96.875 12.3301 96.7173 12.3301 96.5227L12.3301 86.6591C12.3301 86.4645 12.1724 86.3068 11.9778 86.3068Z" stroke="white" stroke-width="1.32102" stroke-linecap="round" stroke-linejoin="round"/>
<path d="M11.9778 58.1252L2.11417 58.1252C1.9196 58.1252 1.7619 58.2829 1.7619 58.4775L1.7619 68.3411C1.7619 68.5356 1.9196 68.6934 2.11417 68.6934L11.9778 68.6934C12.1724 68.6934 12.3301 68.5356 12.3301 68.3411L12.3301 58.4774C12.3301 58.2829 12.1724 58.1252 11.9778 58.1252Z" stroke="white" stroke-width="1.32102" stroke-linecap="round" stroke-linejoin="round"/>
<path d="M11.9778 29.943L2.11417 29.943C1.9196 29.943 1.7619 30.1007 1.7619 30.2953L1.7619 40.159C1.7619 40.3535 1.9196 40.5112 2.11417 40.5112L11.9778 40.5112C12.1724 40.5112 12.3301 40.3535 12.3301 40.159L12.3301 30.2953C12.3301 30.1007 12.1724 29.943 11.9778 29.943Z" stroke="white" stroke-width="1.32102" stroke-linecap="round" stroke-linejoin="round"/>
<path d="M11.9778 1.76141L2.11417 1.76141C1.9196 1.76141 1.7619 1.91911 1.7619 2.11368L1.7619 11.9773C1.7619 12.1719 1.9196 12.3296 2.11417 12.3296L11.9778 12.3296C12.1724 12.3296 12.3301 12.1719 12.3301 11.9773L12.3301 2.11368C12.3301 1.91911 12.1724 1.76141 11.9778 1.76141Z" stroke="white" stroke-width="1.32102" stroke-linecap="round" stroke-linejoin="round"/>
</svg>
